<svg xmlns="http://www.w3.org/2000/svg" xmlns:xlink="http://www.w3.org/1999/xlink" width="165" height="165" viewBox="0 0 165 165"><defs><clipPath id="a"><rect width="165" height="165" transform="translate(-383 1415)" fill="#08a1ba"/></clipPath></defs><g transform="translate(383 -1415)" clip-path="url(#a)"><g transform="translate(-383 1415)"><rect width="165" height="165" fill="none"/><path d="M116.875,75.625v-55H48.125v27.5h-27.5v96.25h55v-27.5h13.75v27.5h55V75.625Zm-68.75,55H34.375v-13.75h13.75Zm0-27.5H34.375V89.375h13.75Zm0-27.5H34.375V61.875h13.75Zm27.5,27.5H61.875V89.375h13.75Zm0-27.5H61.875V61.875h13.75Zm0-27.5H61.875V34.375h13.75Zm27.5,55H89.375V89.375h13.75Zm0-27.5H89.375V61.875h13.75Zm0-27.5H89.375V34.375h13.75Zm27.5,82.5h-13.75v-13.75h13.75Zm0-27.5h-13.75V89.375h13.75Z" fill="#08a1ba"/></g></g></svg>