<svg xmlns="http://www.w3.org/2000/svg" xmlns:xlink="http://www.w3.org/1999/xlink" width="165" height="165" viewBox="0 0 165 165">
  <defs>
    <clipPath id="clip-path">
      <rect id="Rectangle_178" data-name="Rectangle 178" width="165" height="165" transform="translate(-396 2168)" fill="#08a1ba" stroke="#707070" stroke-width="1"/>
    </clipPath>
  </defs>
  <g id="Mask_Group_46" data-name="Mask Group 46" transform="translate(396 -2168)" clip-path="url(#clip-path)">
    <g id="contact_page-filled" transform="translate(-396 2168)">
      <rect id="Rectangle_182" data-name="Rectangle 182" width="165" height="165" fill="none"/>
      <path id="Path_741" data-name="Path 741" d="M96.25,13.75h-55A13.79,13.79,0,0,0,27.5,27.5v110a13.79,13.79,0,0,0,13.75,13.75h82.5A13.79,13.79,0,0,0,137.5,137.5V55Zm-13.75,55A13.75,13.75,0,1,1,68.75,82.5,13.79,13.79,0,0,1,82.5,68.75Zm27.5,55H55v-3.919a13.824,13.824,0,0,1,8.388-12.719,47.8,47.8,0,0,1,38.225,0A13.824,13.824,0,0,1,110,119.831Z" fill="#08a1ba"/>
    </g>
  </g>
</svg>
