<svg xmlns="http://www.w3.org/2000/svg" width="35.726" height="35.726" viewBox="0 0 35.726 35.726"><path d="M0,0H35.726V35.726H0Z" fill="none"/><path d="M30.251,13a8.914,8.914,0,0,0-6.7,3.111A8.914,8.914,0,0,0,16.854,13a8.108,8.108,0,0,0-8.187,8.187c0,5.627,5.061,10.212,12.727,17.178l2.158,1.95,2.158-1.965C33.377,31.4,38.438,26.814,38.438,21.187A8.108,8.108,0,0,0,30.251,13ZM23.7,36.147l-.149.149-.149-.149c-7.086-6.416-11.76-10.658-11.76-14.96a5.087,5.087,0,0,1,5.21-5.21,5.819,5.819,0,0,1,5.314,3.513h2.784a5.782,5.782,0,0,1,5.3-3.513,5.087,5.087,0,0,1,5.21,5.21C35.461,25.489,30.787,29.731,23.7,36.147Z" transform="translate(-5.69 -8.534)"/></svg>