<svg xmlns="http://www.w3.org/2000/svg" xmlns:xlink="http://www.w3.org/1999/xlink" width="165" height="165" viewBox="0 0 165 165"><defs><clipPath id="a"><rect width="165" height="165" transform="translate(-396 1622)" fill="#08a1ba" stroke="#707070" stroke-width="1"/></clipPath></defs><g transform="translate(396 -1622)" clip-path="url(#a)"><g transform="translate(-396 1622)"><rect width="165" height="165" fill="none"/><path d="M123.75,110H110v-6.875H55V110H41.25v-6.875H13.75V137.5h137.5V103.125h-27.5Z" fill="#08a1ba"/><path d="M137.5,55H116.875V41.25a13.79,13.79,0,0,0-13.75-13.75H61.875a13.79,13.79,0,0,0-13.75,13.75V55H27.5A13.79,13.79,0,0,0,13.75,68.75v27.5h27.5V82.5H55V96.25h55V82.5h13.75V96.25h27.5V68.75A13.79,13.79,0,0,0,137.5,55Zm-34.375,0H61.875V41.25h41.25Z" fill="#08a1ba"/></g></g></svg>