<svg xmlns="http://www.w3.org/2000/svg" width="3426.31" height="1402.12" viewBox="0 0 3426.31 1402.12"><title>Tripadvisor_Wordmark_Stacked_Registered</title><path d="M1683.58,753A100.93,100.93,0,1,1,1582.65,652,100.93,100.93,0,0,1,1683.58,753ZM2151.66,652A100.94,100.94,0,1,0,2252.59,753,100.93,100.93,0,0,0,2151.66,652ZM2436.28,753c0,157.12-127.49,284.5-284.62,284.5a283.43,283.43,0,0,1-193.29-75.77l-91.16,99.17L1776,961.62a283.45,283.45,0,0,1-193.35,75.83c-157.13,0-284.51-127.38-284.51-284.5a283.82,283.82,0,0,1,92.8-210.27l-93.09-101.29h206.91a639.51,639.51,0,0,1,362.4-111.71c134.95,0,259.7,41.17,363,111.71h206.38l-93.09,101.29A283.82,283.82,0,0,1,2436.28,753Zm-661.09,0c0-106.34-86.2-192.54-192.54-192.54S1390.11,646.61,1390.11,753s86.2,192.54,192.54,192.54S1775.19,859.28,1775.19,753Zm305.68-287.44a555.62,555.62,0,0,0-427.35,0C1775.05,512,1867.21,620.7,1867.21,747.4,1867.21,620.71,1959.35,512,2080.87,465.51ZM2344.2,753c0-106.34-86.2-192.54-192.54-192.54S1959.12,646.61,1959.12,753s86.2,192.54,192.54,192.54S2344.2,859.28,2344.2,753Zm-1788.33,576v-60.16H463.62v358h92.25V1412.08c0-38.87,25-57.95,63.83-57.95h50.46v-85.37H627C593.29,1268.76,564,1286.37,555.87,1328.92ZM756.6,1127.16c-31.55,0-55.75,24.94-55.75,56.49a55.75,55.75,0,0,0,111.5,0C812.35,1152.1,788.14,1127.16,756.6,1127.16Zm-46,499.56h92v-358h-92Zm530.44-179c0,102.18-82.83,185-185,185a178.06,178.06,0,0,1-108.61-36.32V1731.8h-92v-463h92V1299A178,178,0,0,1,1056,1262.72,185,185,0,0,1,1241,1447.74Zm-92.62,0a100.51,100.51,0,1,0-100.5,100.51A100.51,100.51,0,0,0,1148.41,1447.74Zm1692.33-31.4-53.69-14.73c-35.33-9.2-49.09-20-49.09-38.7,0-18.2,19.34-30.91,47-30.91,26.37,0,47,17.27,47,39.32v2h84.82v-2c0-65-53-108.6-131.84-108.6-78.12,0-134.82,43.61-134.82,103.69,0,46.76,31,82,85,96.61l51.42,14c39.06,10.81,53.59,22.82,53.59,44.31,0,22.69-21,37.93-52.24,37.93-32.58,0-54.47-20.6-54.47-51.25v-2h-90v2c0,73.44,59.12,124.73,143.77,124.73,81.57,0,140.78-50.1,140.78-119.12C2928,1479.87,2912.86,1435.57,2840.74,1416.34Zm-1273.2-147.58h92v358h-92v-30.28a178.08,178.08,0,0,1-108.61,36.32c-102.19,0-185-82.84-185-185s82.84-185,185-185A178,178,0,0,1,1567.54,1299Zm0,179v0A100.51,100.51,0,1,0,1467,1548.25,100.51,100.51,0,0,0,1567.54,1447.73Zm424.35-306.4h92v485.37h-92v-30.28a178.06,178.06,0,0,1-108.61,36.32c-102.19,0-185-82.84-185-185a185,185,0,0,1,185-185A178,178,0,0,1,1991.89,1299Zm0,306.39a100.51,100.51,0,1,0-100.51,100.51A100.51,100.51,0,0,0,1991.89,1447.74Zm519.39,179h92v-358h-92Zm46-499.56c-31.54,0-55.74,24.94-55.74,56.49a55.75,55.75,0,1,0,111.5,0C2613,1152.1,2588.83,1127.16,2557.28,1127.16Zm970.61,142.19c-33.74,0-63.08,17.6-71.15,60.15v-60.74h-92.26v358h92.26v-214c0-38.88,24.94-58,63.82-58H3575v-85.37Zm-202.06,178.39c0,102.18-82.83,185-185,185s-185-82.84-185-185,82.84-185,185-185A185,185,0,0,1,3325.83,1447.74Zm-84.51,0a100.51,100.51,0,1,0-100.51,100.51A100.51,100.51,0,0,0,3241.32,1447.74ZM508.75,1141.35H155.68v82.11H286.36v403.26h91.7V1223.46H508.75Zm1785.5,387.34-81.87-259.93h-96.67l122.8,358h110.75l123.52-358h-96.67Z" transform="translate(-155.68 -329.68)"/><path d="M3547.06,1562.37A34.93,34.93,0,1,0,3582,1597.3,35,35,0,0,0,3547.06,1562.37Zm0,64.36a29.43,29.43,0,1,1,29.44-29.43A29.46,29.46,0,0,1,3547.06,1626.73Zm11.34-35.37c0-6.36-4.54-10.13-11.13-10.13H3536.1V1613h5.49v-11.54h6l5.77,11.54h5.9l-6.36-12.72C3556.27,1598.81,3558.4,1595.72,3558.4,1591.36Zm-11.4,5.27h-5.41v-10.54H3547c3.68,0,5.91,1.86,5.91,5.27S3550.68,1596.63,3547,1596.63Z" transform="translate(-155.68 -329.68)"/></svg>