<svg xmlns="http://www.w3.org/2000/svg" xmlns:xlink="http://www.w3.org/1999/xlink" width="165" height="165" viewBox="0 0 165 165"><defs><clipPath id="a"><rect width="165" height="165" transform="translate(-952 2234)" fill="#08a1ba" stroke="#707070" stroke-width="1"/></clipPath></defs><g transform="translate(952 -2234)" clip-path="url(#a)"><g transform="translate(-952 2234)"><rect width="165" height="165" fill="none"/><rect width="20.625" height="58.299" transform="translate(94.756 104.307) rotate(-45)" fill="#08a1ba"/><path d="M120.313,68.75a24.089,24.089,0,0,0,24.063-24.062,23.754,23.754,0,0,0-2.819-11L122.994,52.25,112.75,42.006l18.563-18.563a23.754,23.754,0,0,0-11-2.819A24.089,24.089,0,0,0,96.25,44.688a23.446,23.446,0,0,0,1.444,7.975L84.975,65.381,72.738,53.144l4.881-4.881-9.694-9.694L82.5,23.994a20.623,20.623,0,0,0-29.15,0L29.012,48.331l9.694,9.694H19.319l-4.881,4.881L38.775,87.244l4.881-4.881V62.906L53.35,72.6l4.881-4.881L70.469,79.956,19.525,130.9,34.1,145.475l78.238-78.169A23.446,23.446,0,0,0,120.313,68.75Z" fill="#08a1ba"/></g></g></svg>