<svg xmlns="http://www.w3.org/2000/svg" xmlns:xlink="http://www.w3.org/1999/xlink" width="3628.535" height="2824.121" viewBox="0 0 3628.535 2824.121"><defs><clipPath id="a"><path d="M-56,754.6H3470.8V-421H-56Z" transform="translate(56 421)" fill="none"/></clipPath></defs><g transform="translate(264.832 2148.461) rotate(-31)"><g transform="translate(-56 -421)" clip-path="url(#a)"><g transform="translate(136.206 304.523)"><path d="M250.47,565.463C314.787,566,377.4,586.346,430.417,622.91c138.6,95.588,288.7,49.039,334.773,8.4,53.49-47.226,80.891-119.448,83.009-190.83S829.129,298.5,797.921,234.1c-24.417-50.327-55.951-98.675-100.655-132.42C653.593,68.711,600.225,51.7,547.714,36.325,480.18,16.54,410.942-1.7,340.66.126c-57.3,1.467-121.987,23.155-142.337,76.543-17.333,45.512,3.628,99.223-14.481,144.434-25.367,63.306-111,77.538-153.355,131-49.41,62.342-34.034,147.4,12.356,175.736C91.2,557.379,179.189,564.873,250.47,565.463Z" transform="translate(0 0)" fill="none" stroke="#3ad2d5" stroke-width="3.139"/></g></g></g></svg>