<svg xmlns="http://www.w3.org/2000/svg" xmlns:xlink="http://www.w3.org/1999/xlink" width="38" height="39" viewBox="0 0 38 39"><defs><clipPath id="a"><rect width="38" height="39" rx="19" transform="translate(1149.603 -151.607)" fill="#fff"/></clipPath></defs><g transform="translate(-1149.603 151.607)" clip-path="url(#a)"><g transform="translate(1149.024 -151.687)"><path d="M0,0H39.159V39.159H0Z" fill="none"/><path d="M23.386,13.6a3.263,3.263,0,1,1-3.263,3.263A3.273,3.273,0,0,1,23.386,13.6m0,16.316c4.405,0,9.463,2.1,9.79,3.263H13.6c.375-1.175,5.4-3.263,9.79-3.263m0-19.58a6.527,6.527,0,1,0,6.527,6.527A6.525,6.525,0,0,0,23.386,10.333Zm0,16.316c-4.356,0-13.053,2.186-13.053,6.527V36.44H36.44V33.176C36.44,28.836,27.743,26.65,23.386,26.65Z" transform="translate(-3.807 -3.807)" fill="#fff"/></g></g></svg>